<svg preserveAspectRatio="none" width="100%" height="100%" overflow="visible" style="display: block;" viewBox="0 0 49 60.5841" fill="none" xmlns="http://www.w3.org/2000/svg">
<path id="Vector 3654" d="M41.631 0.319358C39.2264 1.04073 21.8934 4.92813 13.5275 6.78166C11.5738 7.2153 12.175 9.78738 12.175 10.3885C12.175 10.9897 14.4293 38.1914 14.4293 39.9949C14.4293 41.7983 13.227 41.9486 10.071 41.7983C6.91495 41.648 0.152072 45.5555 0.00178556 52.6189C-0.118443 58.2696 5.86294 60.2835 8.86866 60.5841C20.1401 60.1332 20.8915 50.8155 21.1921 49.012C21.4927 47.2086 19.2384 27.0703 19.2384 24.5154C19.2384 21.9605 18.9378 21.0588 19.2384 20.7583C19.539 20.4577 36.0704 16.4 38.7756 15.9491C41.4807 15.4982 41.1802 18.2034 41.1802 19.7063C41.1802 21.2091 42.0819 30.076 42.0819 32.3303C42.0819 34.1337 40.6792 34.1838 39.9779 33.9834C35.7699 33.8632 31.7121 36.7387 30.2093 38.1914C24.0776 43.241 28.9569 49.012 32.163 51.2663C43.8853 55.6246 48.8447 44.3532 48.995 43.1509C49.1453 41.9486 45.839 2.42336 45.6887 1.52165C45.5384 0.61993 44.6367 -0.582358 41.631 0.319358Z" fill="black"/>
</svg>

