<svg viewBox="0 0 20 20" fill="none" xmlns="http://www.w3.org/2000/svg">
  <g fill="#B6B5BB">
    <path d="M5.27043 7.23796L5.09085 6.77132V6.77132L5.27043 7.23796ZM6.71089 7.31808C6.97945 7.25382 7.14507 6.98402 7.08081 6.71545C7.01655 6.44689 6.74674 6.28127 6.47818 6.34554L6.59454 6.83181L6.71089 7.31808ZM5.27043 7.23796L5.09085 6.77132C3.72271 7.29783 2.66701 8.07566 2.29475 9.05698L2.76225 9.23432L3.22974 9.41166C3.4491 8.83339 4.16991 8.19722 5.45001 7.7046L5.27043 7.23796ZM2.76225 9.23432L2.29475 9.05698C1.89325 10.1154 2.37319 11.1313 3.34488 11.8938L3.65353 11.5004L3.96218 11.107C3.19099 10.5019 3.03964 9.9128 3.22974 9.41166L2.76225 9.23432ZM3.65353 11.5004L3.34488 11.8938C4.30733 12.6489 5.77007 13.1913 7.44493 13.4653L7.52566 12.9719L7.60639 12.4784C6.02247 12.2193 4.74262 11.7194 3.96218 11.107L3.65353 11.5004ZM7.52566 12.9719L7.44493 13.4653C9.12862 13.7408 10.9671 13.7356 12.6438 13.4505L12.56 12.9576L12.4761 12.4647C10.9087 12.7312 9.18147 12.7361 7.60639 12.4784L7.52566 12.9719ZM12.56 12.9576L12.6438 13.4505C14.3112 13.167 15.7614 12.6161 16.706 11.8533L16.3919 11.4643L16.0778 11.0753C15.3167 11.6898 14.0528 12.1966 12.4761 12.4647L12.56 12.9576ZM16.3919 11.4643L16.706 11.8533C17.1817 11.4692 17.5352 11.0261 17.7151 10.5339C17.8983 10.0324 17.8899 9.50839 17.6847 9.0047L17.2217 9.19332L16.7586 9.38193C16.8704 9.6563 16.8735 9.92346 16.7758 10.1907C16.6747 10.4674 16.4549 10.7708 16.0778 11.0753L16.3919 11.4643ZM17.2217 9.19332L17.6847 9.0047C17.2882 8.03126 16.2168 7.26166 14.8352 6.74321L14.6596 7.21134L14.4839 7.67947C15.7779 8.16505 16.5213 8.79926 16.7586 9.38193L17.2217 9.19332ZM6.59454 6.83181L6.47818 6.34554C5.98994 6.46236 5.52428 6.60452 5.09085 6.77132L5.27043 7.23796L5.45001 7.7046C5.83772 7.5554 6.26067 7.42581 6.71089 7.31808L6.59454 6.83181Z"/>
    <g transform="translate(23.6603 6.33973) rotate(120)">
      <path d="M5.27043 7.23796L5.09085 6.77132V6.77132L5.27043 7.23796ZM6.71089 7.31808C6.97945 7.25382 7.14507 6.98402 7.08081 6.71545C7.01655 6.44689 6.74674 6.28127 6.47818 6.34554L6.59454 6.83181L6.71089 7.31808ZM5.27043 7.23796L5.09085 6.77132C3.72271 7.29783 2.66701 8.07566 2.29475 9.05698L2.76225 9.23432L3.22974 9.41166C3.4491 8.83339 4.16991 8.19722 5.45001 7.7046L5.27043 7.23796ZM2.76225 9.23432L2.29475 9.05698C1.89325 10.1154 2.37319 11.1313 3.34488 11.8938L3.65353 11.5004L3.96218 11.107C3.19099 10.5019 3.03964 9.9128 3.22974 9.41166L2.76225 9.23432ZM3.65353 11.5004L3.34488 11.8938C4.30733 12.6489 5.77007 13.1913 7.44493 13.4653L7.52566 12.9719L7.60639 12.4784C6.02247 12.2193 4.74262 11.7194 3.96218 11.107L3.65353 11.5004ZM7.52566 12.9719L7.44493 13.4653C9.12862 13.7408 10.9671 13.7356 12.6438 13.4505L12.56 12.9576L12.4761 12.4647C10.9087 12.7312 9.18147 12.7361 7.60639 12.4784L7.52566 12.9719ZM12.56 12.9576L12.6438 13.4505C14.3112 13.167 15.7614 12.6161 16.706 11.8533L16.3919 11.4643L16.0778 11.0753C15.3167 11.6898 14.0528 12.1966 12.4761 12.4647L12.56 12.9576ZM16.3919 11.4643L16.706 11.8533C17.1817 11.4692 17.5352 11.0261 17.7151 10.5339C17.8983 10.0324 17.8899 9.50839 17.6847 9.0047L17.2217 9.19332L16.7586 9.38193C16.8704 9.6563 16.8735 9.92346 16.7758 10.1907C16.6747 10.4674 16.4549 10.7708 16.0778 11.0753L16.3919 11.4643ZM17.2217 9.19332L17.6847 9.0047C17.2882 8.03126 16.2168 7.26166 14.8352 6.74321L14.6596 7.21134L14.4839 7.67947C15.7779 8.16505 16.5213 8.79926 16.7586 9.38193L17.2217 9.19332ZM6.59454 6.83181L6.47818 6.34554C5.98994 6.46236 5.52428 6.60452 5.09085 6.77132L5.27043 7.23796L5.45001 7.7046C5.83772 7.5554 6.26067 7.42581 6.71089 7.31808L6.59454 6.83181Z"/>
    </g>
    <g transform="translate(6.33977 23.6603) rotate(-120)">
      <path d="M5.27043 7.23796L5.09085 6.77132V6.77132L5.27043 7.23796ZM6.71089 7.31808C6.97945 7.25382 7.14507 6.98402 7.08081 6.71545C7.01655 6.44689 6.74674 6.28127 6.47818 6.34554L6.59454 6.83181L6.71089 7.31808ZM5.27043 7.23796L5.09085 6.77132C3.72271 7.29783 2.66701 8.07566 2.29475 9.05698L2.76225 9.23432L3.22974 9.41166C3.4491 8.83339 4.16991 8.19722 5.45001 7.7046L5.27043 7.23796ZM2.76225 9.23432L2.29475 9.05698C1.89325 10.1154 2.37319 11.1313 3.34488 11.8938L3.65353 11.5004L3.96218 11.107C3.19099 10.5019 3.03964 9.9128 3.22974 9.41166L2.76225 9.23432ZM3.65353 11.5004L3.34488 11.8938C4.30733 12.6489 5.77007 13.1913 7.44493 13.4653L7.52566 12.9719L7.60639 12.4784C6.02247 12.2193 4.74262 11.7194 3.96218 11.107L3.65353 11.5004ZM7.52566 12.9719L7.44493 13.4653C9.12862 13.7408 10.9671 13.7356 12.6438 13.4505L12.56 12.9576L12.4761 12.4647C10.9087 12.7312 9.18147 12.7361 7.60639 12.4784L7.52566 12.9719ZM12.56 12.9576L12.6438 13.4505C14.3112 13.167 15.7614 12.6161 16.706 11.8533L16.3919 11.4643L16.0778 11.0753C15.3167 11.6898 14.0528 12.1966 12.4761 12.4647L12.56 12.9576ZM16.3919 11.4643L16.706 11.8533C17.1817 11.4692 17.5352 11.0261 17.7151 10.5339C17.8983 10.0324 17.8899 9.50839 17.6847 9.0047L17.2217 9.19332L16.7586 9.38193C16.8704 9.6563 16.8735 9.92346 16.7758 10.1907C16.6747 10.4674 16.4549 10.7708 16.0778 11.0753L16.3919 11.4643ZM17.2217 9.19332L17.6847 9.0047C17.2882 8.03126 16.2168 7.26166 14.8352 6.74321L14.6596 7.21134L14.4839 7.67947C15.7779 8.16505 16.5213 8.79926 16.7586 9.38193L17.2217 9.19332ZM6.59454 6.83181L6.47818 6.34554C5.98994 6.46236 5.52428 6.60452 5.09085 6.77132L5.27043 7.23796L5.45001 7.7046C5.83772 7.5554 6.26067 7.42581 6.71089 7.31808L6.59454 6.83181Z"/>
    </g>
    <circle cx="10" cy="10" r="1"/>
  </g>
</svg>
