<svg preserveAspectRatio="none" width="100%" height="100%" overflow="visible" style="display: block;" viewBox="0 0 10.8 11.52" fill="none" xmlns="http://www.w3.org/2000/svg">
<path id="Vector" d="M6.00012 2.04846L9.77591 5.82424C9.88842 5.93673 10.041 5.99993 10.2001 5.99993C10.3592 5.99993 10.5118 5.93673 10.6243 5.82424C10.7368 5.71172 10.8 5.55913 10.8 5.40002C10.8 5.24091 10.7368 5.08832 10.6243 4.9758L5.82434 0.175801C5.7364 0.0875058 5.62303 0.028937 5.50012 0.00830095C5.41287 -0.00632703 5.32346 -0.00157941 5.23825 0.0222072C5.13898 0.0498482 5.04855 0.102707 4.97575 0.175645L0.17575 4.97564C0.063219 5.08818 -1.1857e-09 5.2408 0 5.39994C1.1857e-09 5.55908 0.063219 5.71171 0.17575 5.82424C0.28828 5.93677 0.440904 5.99999 0.600046 5.99999C0.759189 5.99999 0.911813 5.93677 1.02434 5.82424L4.80012 2.04846V10.92C4.80012 11.0791 4.86334 11.2318 4.97586 11.3443C5.08838 11.4568 5.24099 11.52 5.40012 11.52C5.55925 11.52 5.71187 11.4568 5.82439 11.3443C5.93691 11.2318 6.00012 11.0791 6.00012 10.92V2.04846Z" fill="white"/>
</svg>

