<svg preserveAspectRatio="none" width="100%" height="100%" overflow="visible" style="display: block;" viewBox="0 0 13.9712 14.6504" fill="none" xmlns="http://www.w3.org/2000/svg">
<path id="Vector" d="M0.494561 11.9896L6.67972 14.5864C6.77347 14.6333 6.87894 14.6544 6.9844 14.6497C7.14612 14.6521 7.30316 14.6005 7.43206 14.5044C7.65237 14.3521 7.78597 14.1013 7.78362 13.8318V3.92942L12.368 2.00754V10.7075C11.4294 11.1002 10.4087 11.4338 9.46771 11.866C9.06151 12.0526 8.90872 12.5386 9.1036 12.9409C9.29812 13.3424 9.77195 13.5227 10.1842 13.352L13.4742 11.9896C13.7742 11.8677 13.9711 11.5771 13.9711 11.2513V0.802853C13.9758 0.533322 13.8422 0.280197 13.6196 0.130197C13.3922 -0.0104282 13.1133 -0.0338657 12.8672 0.0669156L6.67972 2.66379C6.37972 2.78567 6.18284 3.07629 6.18284 3.40207V12.6341L1.59847 10.7099V2.00754C2.25259 2.33831 2.9064 2.67034 3.56103 3.00018C3.96619 3.20432 4.45944 3.03279 4.65181 2.62191C4.83257 2.23584 4.68208 1.77501 4.3018 1.58234C3.25119 1.05003 2.16153 0.576756 1.10394 0.0669156C0.857843 -0.0408969 0.574249 -0.0174595 0.351593 0.130197C0.13128 0.282541 -0.00231341 0.533322 3.03387e-05 0.802853V11.2489C-0.00231341 11.5771 0.194561 11.8677 0.494561 11.9896Z" fill="white"/>
</svg>

