<svg preserveAspectRatio="none" width="100%" height="100%" overflow="visible" style="display: block;" viewBox="0 0 30 30" fill="none" xmlns="http://www.w3.org/2000/svg">
<g id="Frame">
<rect width="30" height="30" rx="4" fill="url(#paint0_linear_0_93)"/>
<path id="Vector" d="M24.3032 15.7264C24.4287 15.5473 24.6184 15.4234 24.8328 15.3805C25.0473 15.3376 25.27 15.3789 25.4548 15.4959C25.6396 15.6129 25.7722 15.7965 25.8252 16.0087C25.8781 16.2209 25.8473 16.4454 25.7391 16.6354L25.6973 16.7006L19.9223 24.9645C19.7968 25.1436 19.6071 25.2674 19.3927 25.3104C19.1782 25.3533 18.9555 25.312 18.7707 25.195C18.5859 25.078 18.4533 24.8944 18.4003 24.6822C18.3474 24.47 18.3782 24.2455 18.4864 24.0554L18.5282 23.9903L24.3032 15.7264ZM20.1975 5.15447C21.1759 5.15449 22.116 5.53517 22.8187 6.21598C23.5215 6.89678 23.9318 7.82429 23.9629 8.80225L23.9648 8.92184V13.2968C23.9647 13.5163 23.8798 13.7273 23.7278 13.8856C23.5758 14.0439 23.3685 14.1374 23.1492 14.1464C22.9299 14.1555 22.7156 14.0794 22.551 13.9341C22.3865 13.7888 22.2845 13.5856 22.2664 13.3668L22.2634 13.2968V8.92184C22.2634 8.39124 22.0593 7.88099 21.6933 7.49682C21.3273 7.11265 20.8276 6.88401 20.2976 6.85829L20.1975 6.85586H9.50302C8.97243 6.85586 8.46217 7.06001 8.078 7.42599C7.69383 7.79197 7.4652 8.29173 7.43948 8.8217L7.43705 8.92184V21.5607C7.43705 22.0913 7.64119 22.6016 8.00717 22.9857C8.37315 23.3699 8.87291 23.5985 9.40288 23.6243L9.50302 23.6267H16.3086C16.5281 23.6268 16.739 23.7117 16.8973 23.8637C17.0557 24.0157 17.1491 24.2231 17.1582 24.4424C17.1672 24.6617 17.0911 24.876 16.9458 25.0405C16.8006 25.205 16.5973 25.307 16.3786 25.3252L16.3086 25.3281H9.50302C8.52457 25.3281 7.5845 24.9474 6.88174 24.2666C6.17898 23.5858 5.76866 22.6583 5.7376 21.6803L5.73566 21.5607V8.92184C5.73567 7.94338 6.11635 7.00332 6.79716 6.30056C7.47797 5.5978 8.40548 5.18748 9.38344 5.15642L9.50302 5.15447H20.1975Z" fill="white"/>
<path id="Vector_2" d="M19.2252 11.2547C19.375 11.2543 19.5192 11.3116 19.628 11.4146C19.7367 11.5176 19.8016 11.6585 19.8093 11.8081C19.817 11.9577 19.7669 12.1046 19.6692 12.2182C19.5716 12.3318 19.434 12.4035 19.285 12.4185L19.2252 12.4214H16.3085C16.1587 12.4218 16.0145 12.3646 15.9058 12.2615C15.7971 12.1585 15.7321 12.0176 15.7244 11.868C15.7167 11.7184 15.7669 11.5716 15.8645 11.458C15.9621 11.3443 16.0997 11.2726 16.2487 11.2577L16.3085 11.2547H19.2252Z" fill="white"/>
<path id="Vector_3" d="M17.7669 9.7964C17.9113 9.79636 18.0506 9.84987 18.1578 9.94658C18.265 10.0433 18.3326 10.1763 18.3474 10.3199L18.3503 10.3797V13.2964C18.3507 13.4462 18.2934 13.5904 18.1904 13.6991C18.0874 13.8079 17.9465 13.8728 17.7969 13.8805C17.6473 13.8882 17.5005 13.838 17.3868 13.7404C17.2732 13.6428 17.2015 13.5052 17.1865 13.3562L17.1836 13.2964V10.3797C17.1836 10.225 17.2451 10.0767 17.3545 9.96726C17.4639 9.85786 17.6122 9.7964 17.7669 9.7964Z" fill="white"/>
<path id="Vector_4" d="M12.5044 12.0709C12.5767 11.9026 12.6952 11.7581 12.846 11.6542C12.9969 11.5503 13.1741 11.4911 13.3572 11.4834C13.5402 11.4758 13.7217 11.5201 13.8807 11.6111C14.0397 11.7022 14.1697 11.8363 14.2558 11.998L14.2918 12.0724L16.979 18.3564C17.0527 18.5286 17.0573 18.7225 16.9918 18.898C16.9264 19.0735 16.7959 19.2171 16.6274 19.299C16.4589 19.3809 16.2654 19.3948 16.087 19.3378C15.9085 19.2809 15.7589 19.1575 15.669 18.9932L15.6383 18.93L13.3964 13.6882L11.1457 18.9309C11.0742 19.0975 10.9432 19.2315 10.7783 19.3067C10.6134 19.3819 10.4263 19.393 10.2537 19.3378L10.1876 19.3135C10.021 19.242 9.88705 19.111 9.81183 18.9461C9.73661 18.7812 9.7255 18.5942 9.78069 18.4215L9.805 18.3554L12.5044 12.0709Z" fill="white"/>
<path id="Vector_5" d="M15.3364 15.7274C15.5237 15.7275 15.7037 15.7996 15.8392 15.9288C15.9747 16.0581 16.0554 16.2345 16.0644 16.4215C16.0734 16.6086 16.0101 16.7919 15.8876 16.9335C15.7651 17.0752 15.5928 17.1643 15.4064 17.1823L15.3364 17.1857H11.9336C11.7464 17.1856 11.5663 17.1135 11.4308 16.9843C11.2953 16.8551 11.2147 16.6786 11.2057 16.4916C11.1967 16.3046 11.26 16.1212 11.3825 15.9796C11.5049 15.8379 11.6772 15.7489 11.8636 15.7308L11.9336 15.7274H15.3364Z" fill="white"/>
</g>
<defs>
<linearGradient id="paint0_linear_0_93" x1="15" y1="30" x2="15" y2="0" gradientUnits="userSpaceOnUse">
<stop stop-color="#F6FFBD"/>
<stop offset="1" stop-color="#C0D34E"/>
</linearGradient>
</defs>
</svg>

