<svg preserveAspectRatio="none" width="100%" height="100%" overflow="visible" style="display: block;" viewBox="0 0 20.8219 14.7424" fill="none" xmlns="http://www.w3.org/2000/svg">
<path id="Vector" d="M20.0461 0C19.6177 0 19.2703 0.347329 19.2703 0.775782V9.66797L10.411 13.1039L1.55393 9.66797V0.776952C1.55393 0.347853 1.20607 0 0.776974 0C0.347875 0 2.06993e-05 0.347854 2.06993e-05 0.776953V10.2211C-0.00232305 10.5469 0.194552 10.8422 0.496896 10.9617L10.1321 14.6953C10.2211 14.7258 10.3172 14.7422 10.411 14.7422C10.5071 14.7445 10.6008 14.7281 10.6899 14.6953L20.325 10.9617C20.625 10.8375 20.8219 10.5445 20.8219 10.2211V0.775781C20.8219 0.347329 20.4746 0 20.0461 0Z" fill="white"/>
</svg>

