<svg preserveAspectRatio="none" width="100%" height="100%" overflow="visible" style="display: block;" viewBox="0 0 19.5401 19.5401" fill="none" xmlns="http://www.w3.org/2000/svg">
<g id="elements">
<path id="Vector 3142" d="M9.77003 15.092L9.77003 12.431" stroke="var(--stroke-0, white)" stroke-width="1.8" stroke-linecap="round"/>
<path id="Rectangle 1147" d="M1.21169 10.8464C0.89856 8.80874 0.741995 7.78992 1.12722 6.88672C1.51245 5.98352 2.36713 5.36556 4.07649 4.12964L5.35364 3.20621C7.48006 1.66874 8.54327 0.9 9.77004 0.9C10.9968 0.9 12.06 1.66874 14.1864 3.20621L15.4636 4.12964C17.173 5.36556 18.0276 5.98352 18.4129 6.88672C18.7981 7.78992 18.6415 8.80874 18.3284 10.8464L18.0614 12.584C17.6175 15.4725 17.3955 16.9168 16.3596 17.7784C15.3237 18.6401 13.8092 18.6401 10.7802 18.6401H8.75991C5.73092 18.6401 4.21643 18.6401 3.18049 17.7784C2.14455 16.9168 1.9226 15.4725 1.47871 12.584L1.21169 10.8464Z" stroke="var(--stroke-0, white)" stroke-width="1.8" stroke-linejoin="round"/>
</g>
</svg>
