<svg preserveAspectRatio="none" width="100%" height="100%" overflow="visible" style="display: block;" viewBox="0 0 20.5338 20.5338" fill="none" xmlns="http://www.w3.org/2000/svg">
<g id="elements">
<path id="Vector" d="M6.58789 6.31987C7.90992 5.50893 9.06379 5.83573 9.75695 6.35628C10.0412 6.56972 10.1833 6.67644 10.2669 6.67644C10.3505 6.67644 10.4926 6.56972 10.7768 6.35628C11.47 5.83573 12.6238 5.50893 13.9459 6.31987C15.6809 7.38413 16.0735 10.8952 12.0715 13.8573C11.3092 14.4215 10.9281 14.7036 10.2669 14.7036C9.60569 14.7036 9.22456 14.4215 8.46229 13.8573C4.46026 10.8952 4.85286 7.38413 6.58789 6.31987Z" stroke="var(--stroke-0, #D9D9D9)" stroke-width="1.8" stroke-linecap="round"/>
<path id="Vector_2" d="M0.900001 10.2669C0.900001 5.85129 0.900001 3.6435 2.27175 2.27175C3.6435 0.900001 5.85129 0.900001 10.2669 0.900001C14.6825 0.900001 16.8903 0.900001 18.262 2.27175C19.6338 3.6435 19.6338 5.85129 19.6338 10.2669C19.6338 14.6825 19.6338 16.8903 18.262 18.262C16.8903 19.6338 14.6825 19.6338 10.2669 19.6338C5.85129 19.6338 3.6435 19.6338 2.27175 18.262C0.900001 16.8903 0.900001 14.6825 0.900001 10.2669Z" stroke="var(--stroke-0, #D9D9D9)" stroke-width="1.8" stroke-linejoin="round"/>
</g>
</svg>
