<svg preserveAspectRatio="none" width="100%" height="100%" overflow="visible" style="display: block;" viewBox="0 0 19.0022 19.1499" fill="none" xmlns="http://www.w3.org/2000/svg">
<g id="Group 88">
<path id="Rectangle 315" d="M0.900001 5.7C0.900001 4.01984 0.900001 3.17976 1.22698 2.53803C1.5146 1.97354 1.97354 1.5146 2.53803 1.22698C3.17976 0.900001 4.01984 0.900001 5.7 0.900001H7.17255C8.85271 0.900001 9.69279 0.900001 10.3345 1.22698C10.899 1.5146 11.358 1.97354 11.6456 2.53803C11.9726 3.17976 11.9726 4.01984 11.9726 5.7V13.4498C11.9726 15.1299 11.9726 15.97 11.6456 16.6117C11.358 17.1762 10.899 17.6352 10.3345 17.9228C9.69279 18.2498 8.85271 18.2498 7.17255 18.2498H5.7C4.01984 18.2498 3.17976 18.2498 2.53803 17.9228C1.97354 17.6352 1.5146 17.1762 1.22698 16.6117C0.900001 15.97 0.900001 15.1299 0.900001 13.4498V5.7Z" stroke="var(--stroke-0, #D4D6D9)" stroke-width="1.8"/>
<path id="Rectangle 316" d="M11.1442 5.48589H13.3022C14.9824 5.48589 15.8224 5.48589 16.4642 5.81287C17.0287 6.10049 17.4876 6.55943 17.7752 7.12392C18.1022 7.76565 18.1022 8.60573 18.1022 10.2859V13.4499C18.1022 15.13 18.1022 15.9701 17.7752 16.6118C17.4876 17.1763 17.0287 17.6353 16.4642 17.9229C15.8224 18.2499 14.9824 18.2499 13.3022 18.2499H9.1826" stroke="var(--stroke-0, #D4D6D9)" stroke-width="1.8"/>
<path id="Vector 117" d="M3.9732 6.9974H8.89931" stroke="var(--stroke-0, #D4D6D9)" stroke-width="1.8"/>
<path id="Vector 118" d="M3.9732 12.4197H8.89931" stroke="var(--stroke-0, #D4D6D9)" stroke-width="1.8"/>
</g>
</svg>
