<svg preserveAspectRatio="none" width="100%" height="100%" overflow="visible" style="display: block;" viewBox="0 0 16 16" fill="none" xmlns="http://www.w3.org/2000/svg">
<g id="star">
<path id="Vector (Stroke)" fill-rule="evenodd" clip-rule="evenodd" d="M8.00182 0.572266C8.25751 0.572266 8.49104 0.714691 8.60421 0.939664L10.5239 4.75558L14.8168 5.37126C15.0697 5.40754 15.2798 5.58156 15.3586 5.82018C15.4375 6.0588 15.3715 6.32065 15.1883 6.49568L12.0826 9.46387L12.8155 13.6572C12.8588 13.9045 12.7551 14.1544 12.5482 14.3019C12.3413 14.4493 12.0671 14.4688 11.8407 14.352L8.00182 12.3711L4.16291 14.352C3.93658 14.4688 3.6623 14.4493 3.4554 14.3019C3.24851 14.1544 3.14489 13.9045 3.18812 13.6572L3.92109 9.46387L0.815316 6.49568C0.632177 6.32065 0.566159 6.0588 0.645011 5.82018C0.723863 5.58156 0.933915 5.40754 1.18688 5.37126L5.47979 4.75558L7.39943 0.939664C7.51261 0.714691 7.74613 0.572266 8.00182 0.572266Z" fill="var(--fill-0, #E6E9F1)"/>
</g>
</svg>
