<svg preserveAspectRatio="none" width="100%" height="100%" overflow="visible" style="display: block;" viewBox="0 0 16 16" fill="none" xmlns="http://www.w3.org/2000/svg">
<g id="star">
<path id="Vector (Stroke)" fill-rule="evenodd" clip-rule="evenodd" d="M7.75 0.572266C8.00569 0.572266 8.23921 0.714691 8.35239 0.939664L10.272 4.75558L14.5649 5.37126C14.8179 5.40754 15.028 5.58156 15.1068 5.82018C15.1857 6.0588 15.1196 6.32065 14.9365 6.49568L11.8307 9.46387L12.5637 13.6572C12.6069 13.9045 12.5033 14.1544 12.2964 14.3019C12.0895 14.4493 11.8152 14.4688 11.5889 14.352L7.75 12.3711L3.91109 14.352C3.68476 14.4688 3.41047 14.4493 3.20358 14.3019C2.99669 14.1544 2.89307 13.9045 2.9363 13.6572L3.66927 9.46387L0.563493 6.49568C0.380354 6.32065 0.314336 6.0588 0.393188 5.82018C0.47204 5.58156 0.682092 5.40754 0.935057 5.37126L5.22797 4.75558L7.14761 0.939664C7.26079 0.714691 7.49431 0.572266 7.75 0.572266Z" fill="var(--fill-0, #FFCA28)"/>
</g>
</svg>
