<svg preserveAspectRatio="none" width="100%" height="100%" overflow="visible" style="display: block;" viewBox="0 0 16 16" fill="none" xmlns="http://www.w3.org/2000/svg">
<g id="star" clip-path="url(#clip0_0_362)">
<path id="Vector (Stroke)" fill-rule="evenodd" clip-rule="evenodd" d="M7.75 0.205078C8.01924 0.205078 8.26514 0.355052 8.38432 0.591949L10.4057 4.61012L14.9262 5.25843C15.1925 5.29664 15.4137 5.47988 15.4967 5.73115C15.5798 5.98242 15.5103 6.25815 15.3174 6.44245L12.047 9.56796L12.8188 13.9835C12.8644 14.2439 12.7552 14.5071 12.5374 14.6624C12.3195 14.8177 12.0307 14.8381 11.7924 14.7152L7.75 12.6292L3.70762 14.7152C3.46929 14.8381 3.18047 14.8177 2.96261 14.6624C2.74475 14.5071 2.63564 14.2439 2.68116 13.9835L3.45298 9.56796L0.18259 6.44245C-0.0102561 6.25815 -0.0797728 5.98242 0.00325839 5.73115C0.0862895 5.47988 0.307475 5.29664 0.573847 5.25843L5.09429 4.61012L7.11568 0.591949C7.23486 0.355052 7.48076 0.205078 7.75 0.205078Z" fill="var(--fill-0, #FFCA28)"/>
</g>
<defs>
<clipPath id="clip0_0_362">
<rect width="16" height="16" fill="white"/>
</clipPath>
</defs>
</svg>
